<svg width="48" height="36" viewBox="0 0 48 36" fill="none" xmlns="http://www.w3.org/2000/svg">
<rect x="0.5" y="0.5" width="47" height="35" rx="11.5" stroke="#494949"/>
<g opacity="0.5" clip-path="url(#clip0_2719_39506)">
<path d="M32.0578 9.94151C31.8052 9.68891 31.4297 9.60287 31.0928 9.71865L16.2909 14.8432C15.9259 14.9695 15.6768 15.3081 15.6645 15.6958C15.6523 16.0818 15.8803 16.4362 16.2364 16.5853L22.7138 19.2836L25.412 25.7609C25.556 26.1101 25.8963 26.3363 26.2735 26.3346H26.3015C26.6892 26.3241 27.0295 26.0749 27.1559 25.7066L32.2805 10.9062C32.3963 10.5677 32.3102 10.194 32.0576 9.94137L32.0578 9.94151Z" fill="white"/>
</g>
<defs>
<clipPath id="clip0_2719_39506">
<rect width="20" height="20" fill="white" transform="translate(14 8)"/>
</clipPath>
</defs>
</svg>
