<svg width="48" height="36" viewBox="0 0 48 36" fill="none" xmlns="http://www.w3.org/2000/svg">
<rect width="48" height="36" rx="12" fill="#1A1A1A"/>
<path fill-rule="evenodd" clip-rule="evenodd" d="M18.5 11C17.1193 11 16 12.1193 16 13.5V20C16 21.3807 17.1193 22.5 18.5 22.5H24.5858C24.851 22.5 25.1054 22.6054 25.2929 22.7929L28.1036 25.6036C28.1973 25.6973 28.3245 25.75 28.4571 25.75H28.5C28.7761 25.75 29 25.5261 29 25.25V22.75C29 22.6119 29.1119 22.5 29.25 22.5H29.5C30.8807 22.5 32 21.3807 32 20V13.5C32 12.1193 30.8807 11 29.5 11H18.5ZM19.5 18C20.3284 18 21 17.3284 21 16.5C21 15.6716 20.3284 15 19.5 15C18.6716 15 18 15.6716 18 16.5C18 17.3284 18.6716 18 19.5 18ZM25.5 16.5C25.5 17.3284 24.8284 18 24 18C23.1716 18 22.5 17.3284 22.5 16.5C22.5 15.6716 23.1716 15 24 15C24.8284 15 25.5 15.6716 25.5 16.5ZM28.5 18C29.3284 18 30 17.3284 30 16.5C30 15.6716 29.3284 15 28.5 15C27.6716 15 27 15.6716 27 16.5C27 17.3284 27.6716 18 28.5 18Z" fill="white"/>
</svg>
