<svg width="46" height="46" viewBox="0 0 46 46" fill="none" xmlns="http://www.w3.org/2000/svg">
<rect width="46" height="46" rx="12" fill="black" fill-opacity="0.4"/>
<g clip-path="url(#clip0_2719_51039)">
<path d="M31.0627 18.4769L27.2446 22.2949L26.5375 23.002L27.2446 23.7091L31.0627 27.5271C31.4532 27.9176 31.4532 28.5508 31.0627 28.9413L28.9413 31.0627C28.5508 31.4532 27.9176 31.4532 27.5271 31.0627L23.7091 27.2446L23.002 26.5375L22.2949 27.2446L18.4769 31.0627C18.0863 31.4532 17.4532 31.4532 17.0627 31.0627L14.9413 28.9413C14.5508 28.5508 14.5508 27.9176 14.9413 27.5271L18.7594 23.7091L19.4665 23.002L18.7593 22.2949L14.9413 18.4769C14.5508 18.0863 14.5508 17.4532 14.9413 17.0627L17.0627 14.9413C17.4532 14.5508 18.0863 14.5508 18.4769 14.9413L22.2949 18.7594L23.002 19.4665L23.7091 18.7593L27.5271 14.9413C27.9176 14.5508 28.5508 14.5508 28.9413 14.9413L31.0627 17.0627C31.4532 17.4532 31.4532 18.0863 31.0627 18.4769Z" fill="white"/>
</g>
<defs>
<clipPath id="clip0_2719_51039">
<rect width="20" height="20" fill="white" transform="translate(13 13)"/>
</clipPath>
</defs>
</svg>
