<svg width="46" height="46" viewBox="0 0 46 46" fill="none" xmlns="http://www.w3.org/2000/svg">
<rect width="46" height="46" rx="12" fill="black" fill-opacity="0.4"/>
<g clip-path="url(#clip0_2719_51032)">
<g clip-path="url(#clip1_2719_51032)">
<path d="M32.411 21.0547L30.1819 20.6761C30.0557 20.2764 29.8874 19.898 29.6982 19.5194L31.002 17.6898C31.1913 17.4163 31.1703 17.0379 30.939 16.8065L29.1513 15.0188C28.92 14.7875 28.5415 14.7454 28.268 14.9557L26.4384 16.2596C26.0809 16.0704 25.6813 15.9021 25.2817 15.7759L24.9242 13.5679C24.8611 13.2313 24.5877 13 24.2512 13H21.7276C21.3911 13 21.1178 13.2313 21.0545 13.5679L20.6761 15.797C20.2764 15.9232 19.898 16.0915 19.5194 16.2807L17.6898 14.9769C17.4163 14.7876 17.0379 14.8086 16.8065 15.0399L15.0188 16.8276C14.7875 17.0589 14.7454 17.4374 14.9557 17.7109L16.2596 19.5405C16.0704 19.898 15.9021 20.2976 15.7759 20.6972L13.5679 21.0547C13.2313 21.1177 13 21.3912 13 21.7277V24.2513C13 24.5878 13.2313 24.8611 13.5679 24.9244L15.797 25.3028C15.9232 25.7024 16.0915 26.0809 16.2807 26.4595L14.9769 28.2891C14.7876 28.5626 14.8086 28.941 15.0399 29.1724L16.8276 30.9601C17.0589 31.1914 17.4374 31.2335 17.7109 31.0231L19.5405 29.7193C19.898 29.9085 20.2976 30.0768 20.6972 30.203L21.0756 32.4321C21.1387 32.7687 21.4122 33 21.7487 33H24.2723C24.6088 33 24.8821 32.7687 24.9453 32.4321L25.3028 30.1818C25.7024 30.0557 26.0809 29.8874 26.4595 29.6982L28.2891 31.002C28.5626 31.1912 28.941 31.1703 29.1724 30.9389L30.9601 29.1513C31.1914 28.9199 31.2335 28.5415 31.0231 28.268L29.7193 26.4384C29.9085 26.0809 30.0768 25.6813 30.203 25.2817L32.4321 24.9032C32.7687 24.8401 33 24.5667 33 24.2302L32.9999 21.7275C32.9789 21.3912 32.7475 21.1177 32.411 21.0546L32.411 21.0547ZM22.9894 26.5857C20.9916 26.5857 19.3932 24.9663 19.3932 22.9894C19.3932 20.9916 21.0126 19.3931 22.9894 19.3931C24.9663 19.3931 26.5857 20.9915 26.5857 22.9894C26.5857 24.9873 24.9873 26.5857 22.9894 26.5857Z" fill="white"/>
</g>
</g>
<defs>
<clipPath id="clip0_2719_51032">
<rect width="20" height="20" fill="white" transform="translate(13 13)"/>
</clipPath>
<clipPath id="clip1_2719_51032">
<rect width="20" height="20" fill="white" transform="translate(13 13)"/>
</clipPath>
</defs>
</svg>
