<svg width="44" height="44" viewBox="0 0 44 44" fill="none" xmlns="http://www.w3.org/2000/svg">
<foreignObject x="-30" y="-30" width="104" height="104"><div xmlns="http://www.w3.org/1999/xhtml" style="backdrop-filter:blur(15px);clip-path:url(#bgblur_0_2719_104167_clip_path);height:100%;width:100%"></div></foreignObject><g data-figma-bg-blur-radius="30">
<rect width="44" height="44" rx="14" fill="white" fill-opacity="0.25"/>
<rect x="1" y="1" width="42" height="42" rx="13" stroke="white" stroke-opacity="0.15" stroke-width="2"/>
<g clip-path="url(#clip1_2719_104167)">
<path d="M30 23.125C30 26.975 25.85 30.125 22 30.125M22 30.125C18.15 30.125 14 26.975 14 23.125M22 30.125V34.0002" stroke="white" stroke-width="2" stroke-linecap="round" stroke-linejoin="round"/>
<path d="M18 21.9375V15C18 13.3431 19.3431 12 21 12H22.9999C24.6568 12 25.9999 13.3431 25.9999 15V21.9375C25.9999 24.1875 24.1875 26 22 26C19.8125 26 18 24.1375 18 21.9375Z" fill="white" stroke="white" stroke-width="2" stroke-linecap="round" stroke-linejoin="round"/>
</g>
</g>
<defs>
<clipPath id="bgblur_0_2719_104167_clip_path" transform="translate(30 30)"><rect width="44" height="44" rx="14"/>
</clipPath><clipPath id="clip1_2719_104167">
<rect width="28" height="28" fill="white" transform="translate(8 8)"/>
</clipPath>
</defs>
</svg>
