<svg width="24" height="24" viewBox="0 0 24 24" fill="none" xmlns="http://www.w3.org/2000/svg">
<g clip-path="url(#clip0_1970_95394)">
<path d="M22.3478 12.7586C22.3478 15.0301 21.583 17.2354 20.1768 19.0192C18.7705 20.8031 16.8046 22.0615 14.5959 22.5918C12.3871 23.1221 10.0642 22.8933 8.00135 21.9423C5.93851 20.9913 4.25591 19.3735 3.22467 17.3496C2.19343 15.3257 1.87362 13.0135 2.31677 10.7857C2.75992 8.55783 3.94021 6.54405 5.66747 5.06883C7.39473 3.59361 9.56835 2.74287 11.8381 2.65369C14.1078 2.56451 16.3415 3.24209 18.1792 4.57724" stroke="white" stroke-width="1.83867" stroke-linecap="round" stroke-linejoin="round"/>
<path d="M18.4088 0.997796L19.5985 5.43783L15.1585 6.62754" stroke="white" stroke-width="1.83867" stroke-linecap="round" stroke-linejoin="round"/>
</g>
<defs>
<clipPath id="clip0_1970_95394">
<rect width="24" height="24" fill="white"/>
</clipPath>
</defs>
</svg>
