<svg width="46" height="46" viewBox="0 0 46 46" fill="none" xmlns="http://www.w3.org/2000/svg">
<rect x="1" y="1" width="44" height="44" rx="11" fill="black"/>
<rect x="1" y="1" width="44" height="44" rx="11" stroke="#242424" stroke-width="2"/>
<g clip-path="url(#clip0_2713_103364)">
<path fill-rule="evenodd" clip-rule="evenodd" d="M20.1232 21.3319L31.4792 21.3319C31.9394 21.3319 32.3125 21.705 32.3125 22.1653L32.3125 23.8319C32.3125 24.2922 31.9394 24.6653 31.4792 24.6653L20.1232 24.6653L23.6046 28.1021C23.9322 28.4254 23.9356 28.953 23.6122 29.2805L22.4413 30.4666C22.118 30.7942 21.5904 30.7976 21.2629 30.4742L14.5912 23.8882C14.0955 23.3987 14.0955 22.5985 14.5912 22.109L21.2629 15.5229C21.5904 15.1996 22.118 15.203 22.4413 15.5305L23.6122 16.7166C23.9356 17.0442 23.9322 17.5718 23.6046 17.8951L20.1232 21.3319Z" fill="white"/>
</g>
<defs>
<clipPath id="clip0_2713_103364">
<rect width="20" height="20" fill="white" transform="translate(13 13)"/>
</clipPath>
</defs>
</svg>
