<svg width="46" height="46" viewBox="0 0 46 46" fill="none" xmlns="http://www.w3.org/2000/svg">
<path d="M19.2002 1H26.7998C30.1766 1 32.6497 1.00076 34.6006 1.16016C36.5395 1.3186 37.8752 1.6291 38.9941 2.19922C41.0637 3.25378 42.7462 4.93632 43.8008 7.00586C44.3709 8.12478 44.6814 9.46047 44.8398 11.3994C44.9992 13.3503 45 15.8234 45 19.2002V26.7998C45 30.1766 44.9992 32.6497 44.8398 34.6006C44.6814 36.5395 44.3709 37.8752 43.8008 38.9941C42.7462 41.0637 41.0637 42.7462 38.9941 43.8008C37.8752 44.3709 36.5395 44.6814 34.6006 44.8398C32.6497 44.9992 30.1766 45 26.7998 45H19.2002C15.8234 45 13.3503 44.9992 11.3994 44.8398C9.46047 44.6814 8.12478 44.3709 7.00586 43.8008C4.93632 42.7462 3.25378 41.0637 2.19922 38.9941C1.6291 37.8752 1.3186 36.5395 1.16016 34.6006C1.00076 32.6497 1 30.1766 1 26.7998V19.2002C1 15.8234 1.00076 13.3503 1.16016 11.3994C1.3186 9.46047 1.6291 8.12478 2.19922 7.00586C3.25378 4.93632 4.93632 3.25378 7.00586 2.19922C8.12478 1.6291 9.46047 1.3186 11.3994 1.16016C13.3503 1.00076 15.8234 1 19.2002 1Z" fill="black"/>
<path d="M19.2002 1H26.7998C30.1766 1 32.6497 1.00076 34.6006 1.16016C36.5395 1.3186 37.8752 1.6291 38.9941 2.19922C41.0637 3.25378 42.7462 4.93632 43.8008 7.00586C44.3709 8.12478 44.6814 9.46047 44.8398 11.3994C44.9992 13.3503 45 15.8234 45 19.2002V26.7998C45 30.1766 44.9992 32.6497 44.8398 34.6006C44.6814 36.5395 44.3709 37.8752 43.8008 38.9941C42.7462 41.0637 41.0637 42.7462 38.9941 43.8008C37.8752 44.3709 36.5395 44.6814 34.6006 44.8398C32.6497 44.9992 30.1766 45 26.7998 45H19.2002C15.8234 45 13.3503 44.9992 11.3994 44.8398C9.46047 44.6814 8.12478 44.3709 7.00586 43.8008C4.93632 42.7462 3.25378 41.0637 2.19922 38.9941C1.6291 37.8752 1.3186 36.5395 1.16016 34.6006C1.00076 32.6497 1 30.1766 1 26.7998V19.2002C1 15.8234 1.00076 13.3503 1.16016 11.3994C1.3186 9.46047 1.6291 8.12478 2.19922 7.00586C3.25378 4.93632 4.93632 3.25378 7.00586 2.19922C8.12478 1.6291 9.46047 1.3186 11.3994 1.16016C13.3503 1.00076 15.8234 1 19.2002 1Z" stroke="#242424" stroke-width="2"/>
<g clip-path="url(#clip0_2713_103392)">
<path fill-rule="evenodd" clip-rule="evenodd" d="M27.7429 25.3302C28.7645 25.8979 29.7867 26.4657 30.8082 27.0334C31.2479 27.2776 31.4408 27.7956 31.2677 28.2681C30.3887 30.6692 27.8146 31.9367 25.3925 31.0527C20.4328 29.2424 16.7565 25.5659 14.946 20.6062C14.062 18.1842 15.3295 15.61 17.7306 14.7311C18.2031 14.5579 18.7212 14.7508 18.9659 15.1905C19.533 16.2121 20.1008 17.2343 20.6685 18.2558C20.9347 18.735 20.8721 19.3039 20.5079 19.7131C20.0309 20.2499 19.5539 20.7866 19.0769 21.3228C20.0951 23.8023 22.1964 25.9036 24.6759 26.9218C25.2121 26.4447 25.7488 25.9678 26.2855 25.4908C26.6954 25.1266 27.2638 25.064 27.7429 25.3301L27.7429 25.3302Z" fill="white"/>
</g>
<defs>
<clipPath id="clip0_2713_103392">
<rect width="20" height="20" fill="white" transform="translate(13 13)"/>
</clipPath>
</defs>
</svg>
